<svg width="150" height="50" viewBox="0 0 150 50" fill="none" xmlns="http://www.w3.org/2000/svg">
<g clip-path="url(#clip0_5990_26831)">
<path d="M137.991 -0.0447966H12.0141C11.5549 -0.0447966 11.1012 -0.0447966 10.6431 -0.0422921C10.2598 -0.0397876 9.87951 -0.0325245 9.49244 -0.0263885C8.65157 -0.0164973 7.81267 0.0574748 6.98304 0.194885C6.15457 0.335287 5.35205 0.599993 4.60263 0.98005C3.85415 1.36334 3.17024 1.86137 2.57573 2.45608C1.97808 3.04908 1.4799 3.7345 1.10032 4.48599C0.719685 5.23606 0.45576 6.03983 0.317657 6.86954C0.178232 7.69816 0.103206 8.53634 0.093253 9.37655C0.0816071 9.7605 0.0803548 10.1457 0.0742188 10.5298V39.4747C0.0803548 39.8635 0.0816071 40.2402 0.093253 40.6292C0.103216 41.4694 0.178242 42.3075 0.317657 43.136C0.455389 43.9662 0.71933 44.7704 1.10032 45.5207C1.47971 46.2698 1.97797 46.9525 2.57573 47.5422C3.16799 48.1395 3.85234 48.6379 4.60263 49.0182C5.35205 49.3993 6.15448 49.6656 6.98304 49.8082C7.81281 49.9445 8.65162 50.0185 9.49244 50.0296C9.87939 50.0381 10.2598 50.043 10.6433 50.043C11.1012 50.0455 11.5549 50.0455 12.0141 50.0455H137.991C138.441 50.0455 138.899 50.0455 139.349 50.043C139.73 50.043 140.122 50.0381 140.503 50.0296C141.342 50.0191 142.18 49.9451 143.008 49.8082C143.839 49.6646 144.644 49.3984 145.397 49.0182C146.147 48.6377 146.831 48.1393 147.422 47.5422C148.019 46.9502 148.518 46.268 148.902 45.5207C149.28 44.7698 149.541 43.9657 149.677 43.136C149.817 42.3073 149.895 41.4694 149.91 40.6291C149.915 40.2402 149.915 39.8635 149.915 39.4747C149.925 39.0197 149.925 38.5673 149.925 38.1049V11.897C149.925 11.4383 149.925 10.9834 149.915 10.5298C149.915 10.1457 149.915 9.7605 149.91 9.37643C149.895 8.53614 149.817 7.69815 149.677 6.86941C149.541 6.04027 149.28 5.23665 148.902 4.48612C148.129 2.9797 146.903 1.75348 145.397 0.979925C144.644 0.6008 143.839 0.336165 143.008 0.19476C142.18 0.0567653 141.342 -0.0172117 140.503 -0.0265137C140.122 -0.0326498 139.73 -0.0400381 139.349 -0.0424174C138.899 -0.0449219 138.441 -0.0447966 137.991 -0.0447966Z" fill="#A6A6A6"/>
<path d="M10.6498 48.9497C10.2682 48.9497 9.89595 48.9448 9.51739 48.9363C8.73322 48.9261 7.95089 48.8579 7.1768 48.7322C6.45499 48.6078 5.75577 48.3766 5.10218 48.046C4.45457 47.7182 3.86389 47.2883 3.35278 46.7729C2.83423 46.2636 2.40251 45.6729 2.07473 45.0241C1.74337 44.3712 1.51405 43.6713 1.39475 42.9489C1.26597 42.1726 1.19631 41.3877 1.18638 40.6009C1.17836 40.3368 1.16797 39.4576 1.16797 39.4576V10.5296C1.16797 10.5296 1.17899 9.6638 1.18638 9.40934C1.19592 8.62381 1.2652 7.84014 1.39363 7.06512C1.51315 6.34071 1.74267 5.63882 2.07423 4.98374C2.40075 4.33545 2.83002 3.74426 3.34539 3.23309C3.86022 2.71707 4.45281 2.285 5.10156 1.95266C5.75366 1.62319 6.45157 1.39359 7.17191 1.27155C7.94856 1.1446 8.73362 1.07599 9.52052 1.06631L10.6504 1.05078H139.343L140.486 1.06668C141.266 1.07595 142.044 1.14401 142.814 1.2703C143.541 1.3939 144.247 1.62514 144.906 1.95641C146.206 2.62616 147.263 3.68578 147.93 4.98675C148.257 5.63734 148.483 6.33354 148.601 7.05172C148.731 7.83308 148.803 8.62289 148.818 9.41485C148.822 9.76949 148.822 10.1504 148.822 10.5296C148.832 10.9992 148.832 11.4461 148.832 11.8968V38.1048C148.832 38.5597 148.832 39.0037 148.822 39.4512C148.822 39.8585 148.822 40.2315 148.817 40.6155C148.802 41.3933 148.731 42.1691 148.603 42.9365C148.486 43.6641 148.258 44.3695 147.927 45.0278C147.597 45.6694 147.167 46.2551 146.655 46.763C146.143 47.2812 145.552 47.7135 144.903 48.0435C144.245 48.3766 143.541 48.6087 142.814 48.7319C142.04 48.8584 141.257 48.9267 140.473 48.9362C140.099 48.945 139.724 48.9494 139.349 48.9496L137.992 48.9521L10.6498 48.9497Z" fill="black"/>
<path d="M31.0926 25.377C31.1061 24.3318 31.3837 23.307 31.8997 22.398C32.4156 21.4889 33.1531 20.7251 34.0436 20.1777C33.4779 19.3698 32.7316 18.7049 31.864 18.2359C30.9965 17.7668 30.0315 17.5065 29.0457 17.4757C26.9428 17.2549 24.9042 18.7339 23.8325 18.7339C22.7403 18.7339 21.0905 17.4976 19.3139 17.5341C18.1647 17.5712 17.0448 17.9054 16.0631 18.504C15.0815 19.1027 14.2717 19.9454 13.7126 20.9501C11.2907 25.1432 13.0972 31.3056 15.4173 34.6949C16.578 36.3547 17.9344 38.2085 19.7095 38.1428C21.4464 38.0708 22.095 37.0352 24.1918 37.0352C26.2691 37.0352 26.8777 38.1428 28.6887 38.101C30.5525 38.0708 31.7268 36.4339 32.8468 34.7586C33.6807 33.576 34.3225 32.269 34.7482 30.886C33.6654 30.428 32.7413 29.6614 32.0912 28.6817C31.4412 27.7021 31.0939 26.5527 31.0926 25.377ZM27.672 15.2465C28.6882 14.0266 29.1888 12.4585 29.0676 10.8754C27.515 11.0385 26.0808 11.7805 25.0509 12.9536C24.5473 13.5268 24.1616 14.1935 23.9158 14.9158C23.6701 15.638 23.5691 16.4017 23.6187 17.163C24.3952 17.171 25.1635 17.0027 25.8656 16.6707C26.5677 16.3387 27.1853 15.8518 27.672 15.2465ZM53.0489 33.9412H47.1215L45.6981 38.1443H43.1873L48.8018 22.5938H51.4102L57.0246 38.1443H54.4711L53.0489 33.9412ZM47.7354 32.0016H52.4338L50.1177 25.1803H50.0528L47.7354 32.0016ZM69.1497 32.4762C69.1497 35.9993 67.2639 38.2629 64.4183 38.2629C63.6974 38.3006 62.9805 38.1346 62.3496 37.7837C61.7187 37.4329 61.1993 36.9116 60.851 36.2793H60.7972V41.8949H58.47V26.8067H60.7226V28.6925H60.7655C61.1298 28.0633 61.6579 27.5446 62.2936 27.1917C62.9293 26.8387 63.6488 26.6647 64.3755 26.6881C67.2529 26.6881 69.1497 28.9629 69.1497 32.4762ZM66.7576 32.4762C66.7576 30.1808 65.5715 28.6717 63.7616 28.6717C61.9834 28.6717 60.7875 30.2125 60.7875 32.4761C60.7875 34.7606 61.9834 36.2904 63.7616 36.2904C65.5715 36.2904 66.7576 34.7925 66.7576 32.4762ZM81.6282 32.4762C81.6282 35.9993 79.7425 38.2629 76.8968 38.2629C76.1759 38.3006 75.459 38.1345 74.8281 37.7837C74.1973 37.4329 73.6779 36.9115 73.3296 36.2793H73.2758V41.8949H70.9486V26.8067H73.2011V28.6925H73.244C73.6083 28.0633 74.1364 27.5446 74.7721 27.1917C75.4078 26.8387 76.1272 26.6647 76.854 26.6881C79.7315 26.6881 81.6282 28.9629 81.6282 32.4762ZM79.2363 32.4762C79.2363 30.1808 78.05 28.6717 76.2401 28.6717C74.4619 28.6717 73.266 30.2125 73.266 32.4761C73.266 34.7606 74.4619 36.2904 76.2401 36.2904C78.05 36.2904 79.2363 34.7925 79.2363 32.4762ZM89.8756 33.8116C90.048 35.3536 91.5461 36.3662 93.5931 36.3662C95.5547 36.3662 96.966 35.3536 96.966 33.9631C96.966 32.7561 96.1148 32.0334 94.0995 31.5381L92.084 31.0526C89.2286 30.3629 87.903 29.0275 87.903 26.8604C87.903 24.1774 90.2412 22.3345 93.5613 22.3345C96.8472 22.3345 99.0999 24.1774 99.1757 26.8604H96.8264C96.6858 25.3087 95.403 24.3718 93.5283 24.3718C91.6536 24.3718 90.3708 25.3197 90.3708 26.699C90.3708 27.7985 91.1902 28.4454 93.1944 28.9406L94.9077 29.3613C98.0982 30.1158 99.424 31.3975 99.424 33.672C99.424 36.5813 97.1066 38.4035 93.4207 38.4035C89.972 38.4035 87.6437 36.624 87.4933 33.8115L89.8756 33.8116ZM104.446 24.1238V26.8067H106.602V28.6497H104.446V34.8999C104.446 35.8709 104.878 36.3234 105.826 36.3234C106.082 36.3189 106.337 36.3009 106.591 36.2695V38.1016C106.165 38.1811 105.732 38.2171 105.299 38.209C103.003 38.209 102.108 37.347 102.108 35.1481V28.6497H100.46V26.8067H102.108V24.1238H104.446ZM107.851 32.4762C107.851 28.9089 109.952 26.6674 113.228 26.6674C116.515 26.6674 118.607 28.9089 118.607 32.4762C118.607 36.0531 116.526 38.2849 113.228 38.2849C109.931 38.2849 107.851 36.0531 107.851 32.4762ZM116.235 32.4762C116.235 30.0292 115.114 28.5848 113.228 28.5848C111.342 28.5848 110.222 30.0401 110.222 32.4762C110.222 34.933 111.342 36.3662 113.228 36.3662C115.114 36.3662 116.235 34.933 116.235 32.4762ZM120.525 26.8067H122.745V28.7365H122.799C122.949 28.1338 123.302 27.6011 123.799 27.2281C124.295 26.8551 124.905 26.6644 125.526 26.6881C125.794 26.6872 126.061 26.7163 126.323 26.7749V28.9517C125.985 28.8483 125.631 28.8008 125.277 28.8111C124.939 28.7974 124.602 28.857 124.289 28.9858C123.977 29.1147 123.695 29.3097 123.465 29.5575C123.235 29.8053 123.061 30.1 122.955 30.4214C122.849 30.7429 122.814 31.0834 122.852 31.4195V38.1443H120.525V26.8067ZM137.053 34.8143C136.74 36.8725 134.735 38.2849 132.171 38.2849C128.873 38.2849 126.826 36.0752 126.826 32.5299C126.826 28.9738 128.884 26.6674 132.073 26.6674C135.21 26.6674 137.182 28.8221 137.182 32.2597V33.057H129.175V33.1976C129.138 33.6149 129.19 34.0352 129.328 34.4307C129.466 34.8262 129.687 35.1879 129.975 35.4916C130.264 35.7954 130.613 36.0342 131.001 36.1924C131.389 36.3506 131.806 36.4244 132.225 36.409C132.775 36.4606 133.327 36.3332 133.798 36.0459C134.27 35.7585 134.637 35.3266 134.843 34.8143H137.053ZM129.186 31.4306H134.854C134.875 31.0554 134.818 30.6799 134.687 30.3278C134.556 29.9756 134.353 29.6544 134.092 29.3842C133.831 29.114 133.517 28.9007 133.17 28.7576C132.822 28.6146 132.449 28.5449 132.073 28.553C131.694 28.5507 131.318 28.6236 130.968 28.7673C130.617 28.911 130.298 29.1227 130.03 29.3902C129.761 29.6577 129.549 29.9758 129.404 30.326C129.259 30.6762 129.185 31.0516 129.186 31.4306ZM47.4437 10.8888C47.9316 10.8538 48.4212 10.9275 48.8772 11.1046C49.3332 11.2817 49.7441 11.5578 50.0805 11.913C50.4168 12.2682 50.6701 12.6936 50.8221 13.1585C50.9742 13.6235 51.0211 14.1163 50.9595 14.6016C50.9595 16.9887 49.6693 18.3609 47.4437 18.3609H44.7447V10.8887L47.4437 10.8888ZM45.9053 17.3041H47.3141C47.6627 17.3249 48.0116 17.2678 48.3354 17.1367C48.6591 17.0057 48.9496 16.8042 49.1856 16.5468C49.4216 16.2893 49.5973 15.9825 49.6998 15.6487C49.8023 15.3148 49.8291 14.9623 49.7782 14.6168C49.8254 14.2726 49.7959 13.9223 49.6918 13.5908C49.5877 13.2594 49.4116 12.9551 49.1762 12.6998C48.9407 12.4444 48.6516 12.2443 48.3297 12.1137C48.0078 11.9832 47.6609 11.9255 47.3141 11.9447H45.9053V17.3041ZM52.2705 15.5389C52.2351 15.1684 52.2775 14.7945 52.395 14.4412C52.5125 14.088 52.7025 13.7633 52.9529 13.4878C53.2033 13.2123 53.5084 12.9922 53.8489 12.8416C54.1893 12.691 54.5574 12.6132 54.9297 12.6132C55.302 12.6132 55.6701 12.691 56.0105 12.8416C56.351 12.9922 56.6562 13.2123 56.9065 13.4878C57.1569 13.7633 57.3469 14.088 57.4644 14.4412C57.582 14.7945 57.6243 15.1684 57.5889 15.5389C57.6251 15.9099 57.5833 16.2844 57.4661 16.6383C57.349 16.9922 57.1591 17.3176 56.9086 17.5937C56.6582 17.8698 56.3527 18.0904 56.0119 18.2414C55.6711 18.3924 55.3025 18.4704 54.9297 18.4704C54.5569 18.4704 54.1883 18.3924 53.8475 18.2414C53.5067 18.0904 53.2012 17.8698 52.9508 17.5937C52.7003 17.3176 52.5104 16.9922 52.3933 16.6383C52.2761 16.2844 52.2343 15.9099 52.2705 15.5389ZM56.4443 15.5389C56.4443 14.3166 55.8952 13.6018 54.9316 13.6018C53.9642 13.6018 53.4201 14.3166 53.4201 15.5389C53.4201 16.771 53.9643 17.4803 54.9316 17.4803C55.8952 17.4803 56.4443 16.7661 56.4443 15.5389ZM64.6586 18.3608H63.504L62.3387 14.2078H62.2506L61.0902 18.3608H59.9467L58.3924 12.7218H59.5211L60.5313 17.0246H60.6144L61.7738 12.7218H62.8413L64.0007 17.0246H64.0887L65.0939 12.7218H66.2068L64.6586 18.3608ZM67.514 12.722H68.5853V13.6177H68.6685C68.8095 13.296 69.0475 13.0262 69.3491 12.8461C69.6508 12.666 70.0011 12.5846 70.3512 12.613C70.6256 12.5924 70.9011 12.6338 71.1573 12.7341C71.4135 12.8344 71.6439 12.991 71.8313 13.1925C72.0188 13.3939 72.1585 13.6349 72.2401 13.8976C72.3218 14.1604 72.3433 14.4381 72.303 14.7103V18.3606H71.1901V14.9898C71.1901 14.0837 70.7963 13.633 69.9733 13.633C69.787 13.6243 69.6011 13.656 69.4282 13.726C69.2553 13.7959 69.0996 13.9023 68.9717 14.0381C68.8439 14.1738 68.7468 14.3356 68.6873 14.5123C68.6278 14.689 68.6072 14.8765 68.6269 15.0619V18.3608H67.514V12.722ZM74.0762 10.5206H75.189V18.3608H74.0762V10.5206ZM76.736 15.5389C76.7005 15.1683 76.7429 14.7944 76.8605 14.4411C76.978 14.0878 77.168 13.763 77.4184 13.4875C77.6689 13.212 77.9741 12.9919 78.3146 12.8412C78.655 12.6906 79.0232 12.6128 79.3955 12.6128C79.7678 12.6128 80.136 12.6906 80.4765 12.8412C80.817 12.9919 81.1222 13.212 81.3726 13.4875C81.623 13.763 81.8131 14.0878 81.9306 14.4411C82.0482 14.7944 82.0905 15.1683 82.0551 15.5389C82.0911 15.9099 82.0492 16.2842 81.9319 16.638C81.8146 16.9918 81.6247 17.3171 81.3742 17.5931C81.1238 17.8691 80.8183 18.0896 80.4776 18.2405C80.1368 18.3914 79.7682 18.4694 79.3955 18.4694C79.0229 18.4694 78.6543 18.3914 78.3135 18.2405C77.9728 18.0896 77.6673 17.8691 77.4169 17.5931C77.1664 17.3171 76.9764 16.9918 76.8592 16.638C76.7419 16.2842 76.7 15.9099 76.736 15.5389ZM80.9098 15.5389C80.9098 14.3166 80.3607 13.6018 79.397 13.6018C78.4297 13.6018 77.8856 14.3166 77.8856 15.5389C77.8856 16.771 78.4298 17.4803 79.397 17.4803C80.3607 17.4803 80.9098 16.7661 80.9098 15.5389ZM83.2266 16.7661C83.2266 15.7511 83.9823 15.1659 85.3238 15.0827L86.8512 14.9947V14.5079C86.8512 13.9124 86.4575 13.5761 85.6969 13.5761C85.0756 13.5761 84.6451 13.8042 84.5217 14.2029H83.4442C83.5579 13.2343 84.4691 12.6132 85.7482 12.6132C87.1619 12.6132 87.9592 13.3169 87.9592 14.5079V18.3608H86.8879V17.5683H86.7999C86.6212 17.8526 86.3702 18.0843 86.0727 18.2398C85.7751 18.3954 85.4416 18.4692 85.1062 18.4537C84.8695 18.4783 84.6302 18.453 84.4039 18.3795C84.1775 18.306 83.9691 18.1859 83.792 18.0269C83.6149 17.8679 83.4731 17.6736 83.3757 17.4564C83.2783 17.2393 83.2275 17.0041 83.2266 16.7661ZM86.8512 16.2843V15.8128L85.4742 15.9008C84.6977 15.9528 84.3455 16.217 84.3455 16.714C84.3455 17.2216 84.7858 17.517 85.3911 17.517C85.5685 17.5349 85.7477 17.517 85.918 17.4643C86.0883 17.4116 86.2463 17.3252 86.3825 17.2102C86.5187 17.0952 86.6304 16.9539 86.711 16.7949C86.7915 16.6358 86.8392 16.4621 86.8512 16.2843ZM89.4219 15.5389C89.4219 13.7571 90.3378 12.6284 91.7625 12.6284C92.1149 12.6122 92.4646 12.6966 92.7708 12.8718C93.0771 13.047 93.3271 13.3057 93.4917 13.6177H93.5748V10.5205H94.6876V18.3606H93.6213V17.4697H93.5333C93.356 17.7796 93.0972 18.0351 92.7851 18.2085C92.473 18.382 92.1194 18.4667 91.7626 18.4536C90.328 18.4536 89.4219 17.3249 89.4219 15.5389ZM90.5714 15.5389C90.5714 16.7348 91.1352 17.4546 92.0779 17.4546C93.0158 17.4546 93.5956 16.7246 93.5956 15.5437C93.5956 14.3686 93.0098 13.6281 92.0779 13.6281C91.1412 13.6281 90.5714 14.3527 90.5714 15.5389ZM99.2919 15.5389C99.2564 15.1684 99.2988 14.7945 99.4163 14.4412C99.5338 14.088 99.7239 13.7633 99.9742 13.4878C100.225 13.2123 100.53 12.9922 100.87 12.8416C101.211 12.691 101.579 12.6132 101.951 12.6132C102.323 12.6132 102.691 12.691 103.032 12.8416C103.372 12.9922 103.678 13.2123 103.928 13.4878C104.178 13.7633 104.368 14.088 104.486 14.4412C104.603 14.7945 104.646 15.1684 104.61 15.5389C104.646 15.9099 104.605 16.2844 104.487 16.6383C104.37 16.9922 104.18 17.3176 103.93 17.5937C103.68 17.8698 103.374 18.0904 103.033 18.2414C102.692 18.3924 102.324 18.4704 101.951 18.4704C101.578 18.4704 101.21 18.3924 100.869 18.2414C100.528 18.0904 100.223 17.8698 99.9721 17.5937C99.7217 17.3176 99.5318 16.9922 99.4146 16.6383C99.2975 16.2844 99.2557 15.9099 99.2919 15.5389ZM103.466 15.5389C103.466 14.3166 102.917 13.6018 101.953 13.6018C100.986 13.6018 100.441 14.3166 100.441 15.5389C100.441 16.771 100.986 17.4803 101.953 17.4803C102.917 17.4803 103.466 16.7661 103.466 15.5389ZM106.103 12.722H107.175V13.6177H107.258C107.399 13.296 107.637 13.0262 107.939 12.8461C108.24 12.666 108.59 12.5846 108.941 12.613C109.215 12.5924 109.491 12.6338 109.747 12.7341C110.003 12.8344 110.233 12.991 110.421 13.1925C110.608 13.3939 110.748 13.6349 110.83 13.8976C110.911 14.1604 110.933 14.4381 110.892 14.7103V18.3606H109.78V14.9898C109.78 14.0837 109.386 13.633 108.563 13.633C108.376 13.6243 108.19 13.656 108.018 13.726C107.845 13.7959 107.689 13.9023 107.561 14.0381C107.433 14.1738 107.336 14.3356 107.277 14.5123C107.217 14.689 107.197 14.8765 107.216 15.0619V18.3608H106.104L106.103 12.722ZM117.181 11.3181V12.7476H118.402V13.685H117.181V16.5844C117.181 17.1751 117.424 17.4338 117.978 17.4338C118.12 17.4333 118.261 17.4247 118.402 17.408V18.3351C118.202 18.3708 118 18.3899 117.797 18.3919C116.559 18.3919 116.066 17.9565 116.066 16.8694V13.685H115.171V12.7475H116.066V11.3182L117.181 11.3181ZM119.922 10.5206H121.025V13.6281H121.113C121.261 13.3034 121.506 13.0321 121.814 12.8513C122.121 12.6706 122.477 12.5891 122.833 12.6179C123.106 12.6031 123.379 12.6486 123.632 12.7514C123.885 12.8541 124.113 13.0115 124.298 13.2123C124.484 13.4131 124.623 13.6524 124.705 13.913C124.787 14.1737 124.811 14.4493 124.775 14.7202V18.3608H123.661V14.9947C123.661 14.0939 123.241 13.6379 122.455 13.6379C122.264 13.6222 122.071 13.6485 121.891 13.7149C121.711 13.7814 121.548 13.8864 121.413 14.0225C121.277 14.1587 121.174 14.3228 121.108 14.5032C121.043 14.6837 121.018 14.8763 121.035 15.0675V18.3608H119.922V10.5206ZM131.264 16.8381C131.112 17.3535 130.785 17.7993 130.338 18.0976C129.892 18.3958 129.354 18.5275 128.82 18.4696C128.449 18.4794 128.08 18.4082 127.738 18.2611C127.397 18.1139 127.092 17.8942 126.844 17.6173C126.596 17.3404 126.412 17.0128 126.303 16.6574C126.195 16.302 126.165 15.9272 126.215 15.5591C126.166 15.1898 126.196 14.8142 126.305 14.4577C126.413 14.1012 126.597 13.7721 126.843 13.4928C127.09 13.2134 127.393 12.9903 127.734 12.8385C128.074 12.6867 128.443 12.6098 128.815 12.613C130.384 12.613 131.331 13.685 131.331 15.4557V15.844H127.349V15.9063C127.332 16.1133 127.358 16.3216 127.425 16.5178C127.493 16.7141 127.601 16.8941 127.743 17.0462C127.884 17.1983 128.056 17.3191 128.246 17.401C128.437 17.4829 128.643 17.5241 128.851 17.5217C129.117 17.5537 129.387 17.5058 129.626 17.3841C129.864 17.2623 130.062 17.0723 130.192 16.8381H131.264ZM127.349 15.021H130.197C130.211 14.8317 130.186 14.6417 130.122 14.4629C130.058 14.2842 129.957 14.1208 129.827 13.9833C129.696 13.8457 129.538 13.737 129.363 13.6641C129.187 13.5913 128.999 13.5559 128.809 13.5602C128.617 13.5578 128.426 13.5939 128.247 13.6665C128.069 13.7391 127.907 13.8466 127.771 13.9827C127.635 14.1189 127.528 14.2809 127.455 14.4592C127.383 14.6375 127.347 14.8285 127.349 15.021Z" fill="white"/>
</g>
<defs>
<clipPath id="clip0_5990_26831">
<rect width="150" height="50" fill="white"/>
</clipPath>
</defs>
</svg>
