<svg width="28" height="28" viewBox="0 0 28 28" fill="none" xmlns="http://www.w3.org/2000/svg">
  <path d="M14.0008 4.90039L1.23047 9.68937L14.0008 16.0745L20.0831 13.0334L14.3772 11.2888C14.2597 11.3452 14.1311 11.3746 14.0008 11.3748C13.7687 11.3748 13.5461 11.2827 13.382 11.1186C13.218 10.9545 13.1258 10.7319 13.1258 10.4998C13.1258 10.2678 13.218 10.0452 13.382 9.88112C13.5461 9.71703 13.7687 9.62484 14.0008 9.62484L13.8561 10.0953L14.8698 10.4071C14.87 10.4082 14.8701 10.4092 14.8702 10.4102L16.3662 10.8677L24.8836 13.4882V14.1525C24.7658 14.2326 24.6693 14.3403 24.6026 14.4662C24.5359 14.5921 24.5009 14.7324 24.5008 14.8749C24.5009 15.0206 24.5375 15.1641 24.6071 15.2921C24.6768 15.4201 24.7773 15.5287 24.8996 15.608C24.5013 17.1133 24.5008 20.5286 24.5008 21.8748C25.3758 22.4433 25.3758 22.4641 26.2508 21.8748C26.2508 20.5288 26.2503 17.1141 25.8521 15.6085C25.9744 15.5291 26.075 15.4204 26.1446 15.2923C26.2142 15.1642 26.2507 15.0207 26.2508 14.8748C26.2507 14.7322 26.2159 14.5917 26.1491 14.4657C26.0824 14.3396 25.9859 14.2317 25.868 14.1515V12.7613L22.6237 11.7631L26.7711 9.68937L14.0008 4.90039ZM6.54265 13.617L5.82498 17.9231C7.25643 18.1103 8.96875 18.9423 10.5429 19.9262C11.4381 20.4857 12.2766 21.0999 12.9577 21.6959C13.3739 22.0601 13.722 22.4095 14.0008 22.7533C14.2795 22.4095 14.6276 22.0601 15.0439 21.6959C15.7249 21.0999 16.5634 20.4857 17.4587 19.9262C19.0328 18.9423 20.7451 18.1103 22.1765 17.9231L21.4588 13.617H21.117L14.0008 17.1752L6.88445 13.617H6.54265Z" fill="white" />
</svg>