<svg width="45" height="31" viewBox="0 0 45 31" fill="none" xmlns="http://www.w3.org/2000/svg">
<path d="M22.4994 0.401367L0.607422 8.61105L22.4994 19.557L32.9262 14.3436L23.1446 11.353C22.9432 11.4496 22.7227 11.4999 22.4994 11.5004C22.1015 11.5004 21.72 11.3424 21.4387 11.0611C21.1574 10.7798 20.9994 10.3983 20.9994 10.0004C20.9994 9.6026 21.1574 9.22107 21.4387 8.93977C21.72 8.65847 22.1015 8.50043 22.4994 8.50043L22.2513 9.30687L23.9891 9.84152C23.9894 9.84327 23.9896 9.84502 23.9899 9.84677L26.5543 10.631L41.1556 15.1234V16.2621C40.9537 16.3995 40.7883 16.5841 40.6739 16.7999C40.5596 17.0158 40.4996 17.2563 40.4994 17.5005C40.4996 17.7504 40.5623 17.9962 40.6817 18.2157C40.8011 18.4352 40.9735 18.6214 41.1831 18.7573C40.5003 21.3378 40.4994 27.1926 40.4994 29.5004C41.9994 30.475 41.9994 30.5106 43.4994 29.5004C43.4994 27.1929 43.4986 21.3392 42.8159 18.7582C43.0256 18.6221 43.198 18.4357 43.3173 18.2161C43.4367 17.9964 43.4993 17.7504 43.4994 17.5004C43.4993 17.2559 43.4395 17.0151 43.3251 16.799C43.2108 16.5828 43.0453 16.3979 42.8431 16.2604V13.8773L37.2815 12.1661L44.3913 8.61105L22.4994 0.401367ZM9.71402 15.3442L8.48373 22.7261C10.9376 23.047 13.873 24.4733 16.5715 26.1598C18.1062 27.1191 19.5437 28.172 20.7112 29.1936C21.4248 29.818 22.0215 30.417 22.4994 31.0064C22.9772 30.4169 23.5739 29.818 24.2875 29.1936C25.455 28.172 26.8924 27.1191 28.4272 26.1598C31.1257 24.4733 34.0611 23.047 36.515 22.7261L35.2845 15.3442H34.6986L22.4994 21.4438L10.3 15.3442H9.71402Z" fill="#F58120"/>
</svg>
