<svg width="21" height="20" viewBox="0 0 21 20" fill="none" xmlns="http://www.w3.org/2000/svg">
<path d="M16.8368 16.3371H14.1698V12.1603C14.1698 11.1643 14.152 9.8822 12.7827 9.8822C11.3936 9.8822 11.181 10.9674 11.181 12.0878V16.3368H8.51409V7.74772H11.0744V8.92152H11.1102C11.3665 8.4834 11.7367 8.12299 12.1816 7.87865C12.6264 7.63432 13.1292 7.51522 13.6364 7.53404C16.3396 7.53404 16.838 9.3121 16.838 11.6252L16.8368 16.3371ZM5.50472 6.57371C4.64993 6.57385 3.95686 5.881 3.95672 5.02621C3.95658 4.17142 4.64937 3.47835 5.50415 3.47821C6.35894 3.478 7.05201 4.17086 7.05215 5.02564C7.05223 5.43613 6.88924 5.82984 6.59904 6.12015C6.30884 6.41047 5.9152 6.57362 5.50472 6.57371ZM6.83826 16.3372H4.16843V7.74772H6.83819L6.83826 16.3372ZM18.1664 1.00131H2.82827C2.10335 0.993154 1.50886 1.57386 1.5 2.29879V17.7009C1.50858 18.4262 2.103 19.0075 2.8282 18.9999H18.1664C18.8932 19.0089 19.4899 18.4276 19.5 17.7009V2.29759C19.4897 1.57126 18.8928 0.990623 18.1664 1.00011" fill="#0A66C2"/>
</svg>
