<svg width="166" height="50" viewBox="0 0 166 50" fill="none" xmlns="http://www.w3.org/2000/svg">
<path d="M159.747 49.2325H6.14413C2.7649 49.2325 0 46.4632 0 43.0785V6.15409C0 2.76932 2.76484 0 6.14413 0H159.747C163.126 0 165.891 2.76932 165.891 6.15409V43.0784C165.891 46.4632 163.127 49.2325 159.747 49.2325Z" fill="black"/>
<path d="M159.747 0H6.14413C2.7649 0 0 2.76932 0 6.15409V43.0784C0 46.4632 2.76484 49.2325 6.14413 49.2325H159.747C163.126 49.2325 165.891 46.4632 165.891 43.0785V6.15409C165.891 2.76932 163.127 0 159.747 0ZM159.747 0.984619C162.593 0.984619 164.908 3.304 164.908 6.15409V43.0784C164.908 45.929 162.593 48.2484 159.747 48.2484H6.14413C3.29869 48.2484 0.98307 45.929 0.98307 43.0785V6.15409C0.98307 3.304 3.29864 0.984674 6.14413 0.984674H159.747" fill="#A6A6A6"/>
<path d="M58.2691 12.6077C58.2691 13.6389 57.9642 14.46 57.3536 15.0726C56.66 15.801 55.7561 16.1655 54.6448 16.1655C53.5807 16.1655 52.6759 15.7962 51.9318 15.0567C51.1865 14.3177 50.8145 13.4014 50.8145 12.3081C50.8145 11.2143 51.1865 10.2985 51.9318 9.55889C52.6759 8.81998 53.5807 8.4502 54.6448 8.4502C55.1729 8.4502 55.6784 8.55364 56.1584 8.75991C56.6384 8.96668 57.0234 9.24115 57.3114 9.58488L56.6633 10.2344C56.1752 9.65027 55.5032 9.35842 54.6448 9.35842C53.8688 9.35842 53.1977 9.63157 52.6313 10.1782C52.0648 10.7254 51.7816 11.435 51.7816 12.3081C51.7816 13.1812 52.0648 13.8908 52.6313 14.438C53.1977 14.9846 53.8687 15.2577 54.6448 15.2577C55.4682 15.2577 56.1546 14.9831 56.7041 14.4332C57.0609 14.0749 57.2671 13.5769 57.3223 12.9374H54.6448V12.0504H58.2176C58.2521 12.2432 58.269 12.4283 58.269 12.6077" fill="white"/>
<path d="M58.2688 12.6077H58.1459C58.1449 13.6154 57.8511 14.398 57.2664 14.9856L57.2651 14.9866L57.2646 14.9876C56.593 15.6909 55.7298 16.0409 54.6445 16.0424C53.6088 16.0409 52.7418 15.6871 52.0179 14.9697C51.2956 14.251 50.9384 13.3735 50.9371 12.3081C50.9384 11.2422 51.2956 10.3653 52.0179 9.64698C52.7418 8.92915 53.6088 8.5748 54.6445 8.5733C55.1568 8.5733 55.6445 8.67343 56.1096 8.87289C56.5752 9.07391 56.943 9.33732 57.217 9.66435L57.3111 9.58492L57.2242 9.49791L56.5762 10.1479L56.663 10.2344L56.7577 10.1557C56.2468 9.5426 55.5298 9.23355 54.6446 9.23538C53.8397 9.23438 53.1317 9.52247 52.546 10.0898C51.9547 10.659 51.6575 11.4086 51.6585 12.3081C51.6575 13.2077 51.9547 13.9572 52.546 14.5264C53.1317 15.0938 53.8397 15.3818 54.6445 15.3808C55.4951 15.3823 56.22 15.0933 56.7907 14.5202C57.1719 14.1375 57.3879 13.6073 57.4446 12.948L57.456 12.8144H54.7675V12.1735H58.2174V12.0504L58.0963 12.072C58.13 12.2587 58.1459 12.436 58.1459 12.6077H58.3916C58.3916 12.4206 58.3743 12.2283 58.3383 12.0284L58.3201 11.9273H54.5217V13.0605H57.3221V12.9374L57.1997 12.9269C57.1455 13.5462 56.9487 14.0125 56.617 14.3463C56.089 14.8731 55.441 15.1332 54.6446 15.1347C53.8973 15.1337 53.2632 14.876 52.7165 14.3495C52.175 13.825 51.9057 13.1553 51.9043 12.3081C51.9057 11.4609 52.175 10.7912 52.7165 10.2667C53.2632 9.74024 53.8972 9.48253 54.6446 9.48153C55.4755 9.48352 56.103 9.7585 56.5691 10.3138L56.6555 10.4167L57.398 9.67198L57.4777 9.59222L57.4052 9.50604C57.1033 9.14555 56.701 8.8594 56.2066 8.64699C55.7112 8.43391 55.1885 8.32715 54.6446 8.32715C53.5522 8.32621 52.6094 8.71082 51.8447 9.47196C51.0772 10.2316 50.6904 11.1865 50.6914 12.3081C50.6904 13.4292 51.0772 14.3847 51.8452 15.1447C52.6094 15.9054 53.5522 16.2896 54.6446 16.2886C55.7823 16.2896 56.726 15.9111 57.4422 15.1577L57.3533 15.0726L57.4402 15.1597C58.0767 14.5226 58.3925 13.662 58.3916 12.6077H58.2688ZM63.9328 9.52291H60.5752V11.8644H63.6031V12.7518H60.5752V15.0933H63.9328V16.0005H59.6286V8.61568H63.9328V9.52291Z" fill="white"/>
<path d="M63.9329 9.5225V9.39942H60.4524V11.9871H63.4803V12.628L60.4524 12.6283V15.216H63.81V15.877H59.7516V8.73834H63.81V9.5225H63.9329H64.0558V8.49219H59.5059V16.1232H64.0558V14.9698H60.6981V12.8745H63.7261V11.7409H60.6981V9.64557H64.0558V9.5225H63.9329ZM67.9281 16.0002H66.9801V9.52244H64.9208V8.61521H69.9873V9.52244H67.9281V16.0001" fill="white"/>
<path d="M67.929 16.0002V15.877H67.1038V9.39942H65.0446V8.7384H69.8654V9.39942H67.8061V16.0001H67.929H68.0519V9.64557H70.1111V8.49219H64.7988V9.64552H66.8581V16.1231H68.0519V16.0001H67.929M73.6541 16.0002V8.61521H74.6012V16.0001H73.6541" fill="white"/>
<path d="M73.6541 16.0002H73.777V8.73834H74.4783V15.877H73.6541V16.0001V16.1232H74.724V8.49219H73.5312V16.1232H73.6541V16.0001M78.8036 16.0002H77.8556V9.52244H75.7964V8.61521H80.8629V9.52244H78.8036V16.0001" fill="white"/>
<path d="M78.8019 16.0006V15.8774H77.9768V9.3998H75.9176V8.73878H80.7383V9.3998H78.6791V16.0005H78.8019H78.9248V9.64595H80.9841V8.49257H75.6719V9.6459H77.731V16.1235H78.9248V16.0005H78.8019M85.7458 14.4279C86.2915 14.9813 86.9593 15.2577 87.7489 15.2577C88.5385 15.2577 89.2066 14.9813 89.7515 14.4279C90.2977 13.8746 90.5714 13.1672 90.5714 12.3081C90.5714 11.449 90.2977 10.7416 89.7515 10.1883C89.2066 9.63489 88.5385 9.35842 87.7489 9.35842C86.9593 9.35842 86.2915 9.63489 85.7458 10.1883C85.2009 10.7416 84.9274 11.449 84.9274 12.3081C84.9274 13.1672 85.2009 13.8746 85.7458 14.4279ZM90.4523 15.0461C89.7274 15.7927 88.826 16.1655 87.7489 16.1655C86.6707 16.1655 85.7697 15.7927 85.0464 15.0461C84.3211 14.3004 83.9601 13.3875 83.9601 12.3081C83.9601 11.2286 84.3211 10.3156 85.0464 9.57001C85.7697 8.82324 86.6707 8.4502 87.7489 8.4502C88.8203 8.4502 89.7193 8.82524 90.4475 9.57482C91.1747 10.3243 91.5386 11.2354 91.5386 12.3081C91.5386 13.3875 91.1756 14.3004 90.4523 15.0461Z" fill="white"/>
<path d="M85.7464 14.428L85.659 14.5145C86.225 15.09 86.9311 15.3823 87.7495 15.3808C88.5674 15.3823 89.2744 15.09 89.8395 14.5145C90.4092 13.9384 90.6957 13.1932 90.6948 12.3081C90.6957 11.4231 90.4092 10.6778 89.8395 10.1017C89.2744 9.52623 88.5674 9.23394 87.7495 9.23538C86.9311 9.23394 86.225 9.52623 85.659 10.1017C85.0907 10.6778 84.8036 11.4231 84.8051 12.3081C84.8036 13.1932 85.0907 13.9384 85.659 14.5145L85.7464 14.428L85.8338 14.3414C85.3125 13.8101 85.0518 13.1418 85.0509 12.3081C85.0518 11.4745 85.3125 10.8062 85.8337 10.2748C86.3598 9.74362 86.9881 9.48303 87.7495 9.48159C88.5102 9.48303 89.14 9.74362 89.6647 10.2748C90.187 10.8062 90.4476 11.4745 90.4486 12.3081C90.4476 13.1417 90.187 13.8101 89.6647 14.3414C89.14 14.8727 88.5103 15.1332 87.7495 15.1346C86.9881 15.1332 86.3598 14.8727 85.8338 14.3414L85.7464 14.428ZM90.4529 15.0462L90.365 14.9607C89.6604 15.6837 88.7988 16.041 87.7495 16.0424C86.6997 16.0409 85.838 15.6837 85.1348 14.9607C84.4316 14.2351 84.0847 13.3601 84.0837 12.3081C84.0847 11.2561 84.4316 10.3811 85.1348 9.65561C85.838 8.93247 86.6996 8.5748 87.7495 8.57336C88.792 8.5748 89.6517 8.93396 90.3602 9.66087C91.0658 10.3898 91.4148 11.2634 91.4163 12.3081C91.4148 13.3601 91.0668 14.2351 90.365 14.9607L90.4529 15.0462L90.5413 15.1317C91.2861 14.3654 91.6629 13.4149 91.6621 12.3081C91.663 11.2077 91.2847 10.2591 90.5363 9.48933C89.7876 8.71657 88.8497 8.32582 87.7495 8.32715C86.6436 8.32582 85.7027 8.71475 84.9587 9.48452V9.48397C84.2123 10.2508 83.8369 11.2014 83.8379 12.3081C83.8369 13.4149 84.2123 14.3654 84.9587 15.1322L84.962 15.1357L84.9587 15.1317C85.7027 15.9015 86.6436 16.2896 87.7495 16.2886C88.8549 16.2896 89.7957 15.9015 90.5413 15.1317L90.4529 15.0462ZM92.8687 16.0006V8.61562H94.0218L97.605 14.3605H97.6458L97.605 12.9374V8.61562H98.5531V16.0005H97.5642L93.8153 9.97716H93.7745L93.8153 11.4008V16.0005H92.8688" fill="white"/>
<path d="M92.8693 16.0002H92.9923V8.73834H93.9542L97.5374 14.4833H97.7726L97.7285 12.9352V8.7384H98.4308V15.8771H97.633L93.8842 9.85373H93.649L93.693 11.4025V15.8771H92.8694V16.0001V16.1232H93.9388V11.3985L93.898 9.97349L93.7751 9.9768V10.0999H93.816V9.9768L93.7117 10.0422L97.4967 16.1232H98.6765V8.49219H97.4828V12.9385L97.5235 14.3635L97.6465 14.3602V14.2371H97.6056V14.3602L97.7098 14.2949L94.0904 8.49219H92.7465V16.1232H92.8694V16.0001M131.406 36.9239H133.699V21.5373H131.406L131.406 36.9239ZM152.059 27.08L149.43 33.7508H149.352L146.624 27.0799H144.154L148.245 36.4037L145.912 41.59H148.305L154.609 27.0799L152.059 27.08ZM139.055 35.1764C138.303 35.1764 137.257 34.8003 137.257 33.8696C137.257 32.682 138.562 32.2267 139.687 32.2267C140.696 32.2267 141.169 32.4444 141.782 32.7417C141.604 34.1667 140.379 35.1764 139.055 35.1764ZM139.332 26.7433C137.672 26.7433 135.953 27.476 135.241 29.0992L137.276 29.9502C137.711 29.0992 138.521 28.8217 139.371 28.8217C140.557 28.8217 141.763 29.5348 141.782 30.8017V30.9599C141.367 30.7223 140.478 30.366 139.391 30.366C137.198 30.366 134.964 31.5733 134.964 33.8301C134.964 35.8889 136.763 37.2153 138.778 37.2153C140.32 37.2153 141.169 36.5225 141.704 35.711H141.782V36.8985H143.995V30.9992C143.995 28.2679 141.96 26.7433 139.332 26.7433ZM125.161 28.953H121.9V23.6788H125.161C126.875 23.6788 127.849 25.1004 127.849 26.3158C127.849 27.5082 126.875 28.953 125.161 28.953ZM125.102 21.5373H119.608V36.9239H121.9V31.0944H125.102C127.643 31.0944 130.142 29.2516 130.142 26.3158C130.142 23.3802 127.643 21.5373 125.102 21.5373ZM95.1422 35.1792C93.5581 35.1792 92.2319 33.8508 92.2319 32.0262C92.2319 30.1825 93.5581 28.8338 95.1422 28.8338C96.7061 28.8338 97.9335 30.1824 97.9335 32.0262C97.9335 33.8508 96.7061 35.1792 95.1422 35.1792ZM97.7751 27.9415H97.6959C97.1813 27.327 96.191 26.7717 94.944 26.7717C92.3308 26.7717 89.9356 29.0718 89.9356 32.0262C89.9356 34.961 92.3307 37.2413 94.944 37.2413C96.191 37.2413 97.1813 36.6859 97.6959 36.0518H97.7751V36.8052C97.7751 38.8082 96.7061 39.8789 94.9838 39.8789C93.5783 39.8789 92.7072 38.8673 92.3504 38.0148L90.3513 38.8476C90.9254 40.2356 92.4498 41.941 94.9838 41.941C97.6762 41.941 99.9528 40.3543 99.9528 36.4879V27.089H97.7751V27.9415ZM101.536 36.9239H103.833V21.5368H101.536V36.9239ZM107.218 31.8478C107.159 29.8251 108.782 28.7943 109.95 28.7943C110.861 28.7943 111.633 29.2501 111.89 29.905L107.218 31.8478ZM114.345 30.103C113.91 28.9328 112.583 26.7717 109.871 26.7717C107.178 26.7717 104.942 28.8934 104.942 32.0065C104.942 34.9413 107.159 37.2413 110.128 37.2413C112.524 37.2413 113.91 35.7739 114.484 34.9214L112.702 33.7315C112.109 34.6041 111.296 35.1792 110.128 35.1792C108.96 35.1792 108.129 34.6436 107.594 33.593L114.582 30.6978L114.345 30.103ZM58.6692 28.3779V30.5987H63.9746C63.8163 31.8478 63.4005 32.7599 62.7669 33.3945C61.9951 34.1681 60.7875 35.0205 58.6692 35.0205C55.4026 35.0205 52.849 32.3834 52.849 29.1116C52.849 25.8399 55.4026 23.2024 58.6692 23.2024C60.4312 23.2024 61.7177 23.8966 62.668 24.7888L64.232 23.2225C62.9057 21.9532 61.1436 20.9816 58.6692 20.9816C54.195 20.9816 50.4336 24.6303 50.4336 29.1116C50.4336 33.593 54.195 37.2413 58.6692 37.2413C61.0846 37.2413 62.9057 36.4485 64.3309 34.961C65.7959 33.4935 66.2514 31.4315 66.2514 29.766C66.2514 29.2501 66.212 28.7746 66.1323 28.3779H58.6692ZM72.2832 35.1792C70.6992 35.1792 69.3331 33.8704 69.3331 32.0065C69.3331 30.1227 70.6992 28.8338 72.2832 28.8338C73.8667 28.8338 75.2328 30.1227 75.2328 32.0065C75.2328 33.8705 73.8667 35.1792 72.2832 35.1792ZM72.2832 26.7717C69.3925 26.7717 67.0366 28.9726 67.0366 32.0065C67.0366 35.0205 69.3925 37.2413 72.2832 37.2413C75.1733 37.2413 77.5292 35.0205 77.5292 32.0065C77.5292 28.9726 75.1733 26.7717 72.2832 26.7717ZM83.7275 35.1792C82.1441 35.1792 80.7778 33.8704 80.7778 32.0065C80.7778 30.1227 82.1441 28.8338 83.7275 28.8338C85.3111 28.8338 86.6772 30.1227 86.6772 32.0065C86.6772 33.8705 85.3111 35.1792 83.7275 35.1792ZM83.7275 26.7717C80.837 26.7717 78.4816 28.9726 78.4816 32.0065C78.4816 35.0205 80.837 37.2413 83.7275 37.2413C86.6177 37.2413 88.9737 35.0205 88.9737 32.0065C88.9737 28.9726 86.6177 26.7717 83.7275 26.7717Z" fill="white"/>
<path d="M12.9144 9.36829C12.502 9.74096 12.2559 10.3625 12.2559 11.1876V11.0011V38.228V38.0487C12.2559 38.8107 12.467 39.3991 12.8246 39.7781L12.9158 39.8656V39.866C13.2052 40.1276 13.5764 40.2665 14.0017 40.266C14.4173 40.266 14.8848 40.1333 15.3783 39.8531L33.215 29.7022L39.3417 26.2151C40.1199 25.7723 40.5567 25.2011 40.6297 24.6193V24.6169C40.5567 24.0338 40.1199 23.4631 39.3418 23.0203L33.2145 19.5335L15.3784 9.38268C14.8839 9.10195 14.4159 8.96875 13.9992 8.96875C13.5744 8.96875 13.2038 9.1072 12.9145 9.36829H12.9144Z" fill="#00C1FF"/>
<path d="M12.9159 39.8652L12.8246 39.7777C12.467 39.3988 12.2559 38.8103 12.2559 38.0483V38.2277V11.0075V11.1873C12.2559 10.3622 12.502 9.7406 12.9144 9.36794L28.1393 24.6171L12.9159 39.8652Z" fill="url(#paint0_linear_5990_26835)"/>
<path d="M33.2124 29.7021L28.1367 24.6174L33.2119 19.5335L39.3392 23.0202C40.1173 23.463 40.5541 24.0337 40.6271 24.6169V24.6192C40.5541 25.2011 40.1173 25.7723 39.3392 26.215L33.2124 29.7021" fill="url(#paint1_linear_5990_26835)"/>
<path d="M13.9998 40.2656C13.5745 40.266 13.2034 40.1271 12.9141 39.8655V39.8651L28.1375 24.617L33.2131 29.7017L15.3764 39.8526C14.883 40.1329 14.4154 40.2656 13.9998 40.2656Z" fill="url(#paint2_linear_5990_26835)"/>
<path d="M28.139 24.6172L12.9141 9.36804C13.2035 9.10695 13.5741 8.9685 13.9989 8.9685C14.4156 8.9685 14.8835 9.10164 15.378 9.38242L33.2142 19.5333L28.139 24.6172" fill="url(#paint3_linear_5990_26835)"/>
<path d="M14.0017 40.4463C13.5765 40.4463 13.2048 40.3073 12.9154 40.0458L12.9149 40.0462C12.9137 40.045 12.9125 40.0439 12.9111 40.0429L12.832 39.9655C12.8295 39.9631 12.8272 39.9602 12.8242 39.9574L12.9155 39.866C13.2049 40.1275 13.576 40.2665 14.0013 40.266C14.4169 40.266 14.8845 40.1333 15.3779 39.853L33.2146 29.7022L33.3289 29.8167L33.2131 29.8825L15.3779 40.0328C14.9282 40.2881 14.5004 40.4213 14.114 40.4435C14.0766 40.4453 14.0392 40.4463 14.0017 40.4463Z" fill="url(#paint4_linear_5990_26835)"/>
<path d="M12.8246 39.957C12.467 39.5781 12.2559 38.9901 12.2559 38.2276V38.0483C12.2559 38.8103 12.467 39.3987 12.8246 39.7777L12.9158 39.8652L12.8246 39.957Z" fill="url(#paint5_linear_5990_26835)"/>
<path d="M33.3291 29.8164L33.2148 29.7018L39.3416 26.2147C40.1197 25.7721 40.5566 25.2008 40.6296 24.619C40.6296 24.8325 40.582 25.046 40.4875 25.2537C40.2969 25.6725 39.9149 26.0682 39.3417 26.3946L33.3291 29.8164" fill="url(#paint6_linear_5990_26835)"/>
<path d="M40.6281 24.6172C40.5551 24.034 40.1183 23.4633 39.3402 23.0204L33.2129 19.5338L33.3272 19.4193H33.3277L39.3402 22.8411C40.198 23.3296 40.6276 23.9733 40.6281 24.6172Z" fill="url(#paint7_linear_5990_26835)"/>
<path d="M12.2559 11.1875V10.9994C12.2559 10.9316 12.2577 10.8653 12.2612 10.8009V10.798C12.2612 10.7971 12.2612 10.7961 12.2615 10.7951V10.7879C12.2985 10.1316 12.502 9.61963 12.8246 9.27778L12.9144 9.36811C12.502 9.74083 12.2559 10.3624 12.2559 11.1875Z" fill="url(#paint8_linear_5990_26835)"/>
<path d="M33.2141 19.5332L15.3779 9.38223C14.8835 9.1015 14.4155 8.96835 13.9988 8.96835C13.574 8.96835 13.2034 9.10681 12.9141 9.3679L12.8242 9.27751C12.8523 9.24776 12.8814 9.21907 12.9116 9.1915C12.9126 9.1905 12.9141 9.1895 12.915 9.18856C13.2021 8.92947 13.5688 8.79101 13.9898 8.78852H13.9988C14.4155 8.78852 14.8835 8.92172 15.3779 9.20256L33.3289 19.4183L33.3284 19.4187L33.2141 19.5332Z" fill="url(#paint9_linear_5990_26835)"/>
<defs>
<linearGradient id="paint0_linear_5990_26835" x1="21.9855" y1="10.7198" x2="8.86504" y2="23.8614" gradientUnits="userSpaceOnUse">
<stop stop-color="#00A0FF"/>
<stop offset="0.00657" stop-color="#00A1FF"/>
<stop offset="0.2601" stop-color="#00BEFF"/>
<stop offset="0.5122" stop-color="#00D2FF"/>
<stop offset="0.7604" stop-color="#00DFFF"/>
<stop offset="1" stop-color="#00E3FF"/>
</linearGradient>
<linearGradient id="paint1_linear_5990_26835" x1="41.5751" y1="24.5295" x2="11.8412" y2="24.5295" gradientUnits="userSpaceOnUse">
<stop stop-color="#FFE000"/>
<stop offset="0.4087" stop-color="#FFBD00"/>
<stop offset="0.7754" stop-color="#FFA500"/>
<stop offset="1" stop-color="#FF9C00"/>
</linearGradient>
<linearGradient id="paint2_linear_5990_26835" x1="30.5184" y1="29.4514" x2="8.2848" y2="51.5581" gradientUnits="userSpaceOnUse">
<stop stop-color="#FF3A44"/>
<stop offset="1" stop-color="#C31162"/>
</linearGradient>
<linearGradient id="paint3_linear_5990_26835" x1="8.99016" y1="7.10728" x2="18.8992" y2="16.9749" gradientUnits="userSpaceOnUse">
<stop stop-color="#32A071"/>
<stop offset="0.0685" stop-color="#2DA771"/>
<stop offset="0.4762" stop-color="#15CF74"/>
<stop offset="0.8009" stop-color="#06E775"/>
<stop offset="1" stop-color="#00F076"/>
</linearGradient>
<linearGradient id="paint4_linear_5990_26835" x1="30.5088" y1="32.9788" x2="12.703" y2="50.8134" gradientUnits="userSpaceOnUse">
<stop stop-color="#CC2E36"/>
<stop offset="1" stop-color="#9C0E4E"/>
</linearGradient>
<linearGradient id="paint5_linear_5990_26835" x1="14.284" y1="10.7197" x2="2.7251" y2="22.2975" gradientUnits="userSpaceOnUse">
<stop stop-color="#008DE0"/>
<stop offset="0.00657" stop-color="#008DE0"/>
<stop offset="0.2601" stop-color="#00A7E0"/>
<stop offset="0.5122" stop-color="#00B8E0"/>
<stop offset="0.7604" stop-color="#00C4E0"/>
<stop offset="1" stop-color="#00C7E0"/>
</linearGradient>
<linearGradient id="paint6_linear_5990_26835" x1="41.5776" y1="24.6179" x2="11.8437" y2="24.6179" gradientUnits="userSpaceOnUse">
<stop stop-color="#E0C500"/>
<stop offset="0.4087" stop-color="#E0A600"/>
<stop offset="0.7754" stop-color="#E09100"/>
<stop offset="1" stop-color="#E08900"/>
</linearGradient>
<linearGradient id="paint7_linear_5990_26835" x1="41.5762" y1="24.6184" x2="11.8423" y2="24.6184" gradientUnits="userSpaceOnUse">
<stop stop-color="#FFE840"/>
<stop offset="0.4087" stop-color="#FFCE40"/>
<stop offset="0.7754" stop-color="#FFBC40"/>
<stop offset="1" stop-color="#FFB540"/>
</linearGradient>
<linearGradient id="paint8_linear_5990_26835" x1="14.2715" y1="10.7409" x2="3.1382" y2="21.4091" gradientUnits="userSpaceOnUse">
<stop stop-color="#40B8FF"/>
<stop offset="0.00657" stop-color="#40B9FF"/>
<stop offset="0.2601" stop-color="#40CEFF"/>
<stop offset="0.5122" stop-color="#40DDFF"/>
<stop offset="0.7604" stop-color="#40E7FF"/>
<stop offset="1" stop-color="#40EAFF"/>
</linearGradient>
<linearGradient id="paint9_linear_5990_26835" x1="8.96791" y1="10.332" x2="16.919" y2="18.2961" gradientUnits="userSpaceOnUse">
<stop stop-color="#65B895"/>
<stop offset="0.0685" stop-color="#62BD95"/>
<stop offset="0.4762" stop-color="#50DB97"/>
<stop offset="0.8009" stop-color="#44ED98"/>
<stop offset="1" stop-color="#40F498"/>
</linearGradient>
</defs>
</svg>
